<svg xmlns="http://www.w3.org/2000/svg" xml:space="preserve" style="fill-rule:evenodd;clip-rule:evenodd;stroke-linejoin:round;stroke-miterlimit:2" viewBox="0 0 201 56">
  <path d="M58.849 14.432h4.113c4.919 0 8.63 3.547 8.63 8.275 0 4.729-3.711 8.276-8.63 8.276h-4.113V14.432Zm4.067 14.162c3.499 0 6.051-2.505 6.051-5.887 0-3.381-2.554-5.886-6.051-5.886h-1.537v11.773h1.537ZM76.299 22.707c0-4.8 3.855-8.583 8.748-8.583 4.894 0 8.749 3.783 8.749 8.583 0 4.801-3.855 8.584-8.749 8.584-4.893 0-8.748-3.783-8.748-8.584Zm14.871 0c0-3.45-2.694-6.169-6.123-6.169-3.428 0-6.122 2.719-6.122 6.169 0 3.451 2.694 6.17 6.122 6.17 3.429 0 6.123-2.719 6.123-6.17ZM112.78 21.71v8.16c-1.512.874-3.571 1.418-5.603 1.418-4.847 0-8.677-3.783-8.677-8.583 0-4.8 3.926-8.583 8.888-8.583 1.68 0 3.311.448 4.658 1.157l-.402 2.483c-1.229-.781-2.719-1.254-4.231-1.254-3.547 0-6.288 2.719-6.288 6.195 0 3.475 2.673 6.194 6.123 6.194 1.182 0 2.199-.19 3.145-.591v-4.35h-4.302l.401-2.246h6.288ZM133.397 31.621l-5.295-11.869-5.32 11.869-5.933-17.189h2.647l3.665 10.898 4.918-11.181 4.941 11.181 3.665-10.898h2.647l-5.933 17.189h-.002ZM142.571 22.707c0-4.8 3.855-8.583 8.748-8.583 4.894 0 8.749 3.783 8.749 8.583 0 4.801-3.855 8.584-8.749 8.584-4.893 0-8.748-3.783-8.748-8.584Zm14.871 0c0-3.45-2.694-6.169-6.123-6.169-3.428 0-6.122 2.719-6.122 6.169 0 3.451 2.694 6.17 6.122 6.17 3.429 0 6.123-2.719 6.123-6.17ZM164.772 22.707c0-4.8 3.854-8.583 8.748-8.583 4.894 0 8.748 3.783 8.748 8.583 0 4.801-3.854 8.584-8.748 8.584-4.894 0-8.748-3.783-8.748-8.584Zm14.871 0c0-3.45-2.694-6.169-6.123-6.169-3.428 0-6.123 2.719-6.123 6.169 0 3.451 2.695 6.17 6.123 6.17 3.429 0 6.123-2.719 6.123-6.17ZM187.682 14.432h4.113c4.918 0 8.63 3.547 8.63 8.275 0 4.729-3.712 8.276-8.63 8.276h-4.113V14.432Zm4.066 14.162c3.5 0 6.052-2.505 6.052-5.887 0-3.381-2.555-5.886-6.052-5.886h-1.537v11.773h1.537Z" style="fill:#0e0e03;fill-rule:nonzero"/>
  <g id="Homes">
    <path d="M71.849 37.777v15.764h-2.381v-6.79h-8.237v6.79h-2.382V38.137l2.382-.358v6.7h8.237v-6.345l2.381-.357ZM76.925 45.752c0-4.52 3.629-8.082 8.237-8.082 4.608 0 8.237 3.562 8.237 8.082 0 4.519-3.629 8.081-8.237 8.081-4.608 0-8.237-3.562-8.237-8.081Zm14.002 0c0-3.249-2.537-5.809-5.765-5.809-3.228 0-5.765 2.56-5.765 5.809s2.537 5.809 5.765 5.809c3.228 0 5.765-2.56 5.765-5.809ZM112.386 53.541l-.868-9.194-5.298 9.482-5.299-9.438-.867 9.148h-2.405l1.647-16.427 6.921 12.332 6.902-12.332 1.646 16.427h-2.382l.003.002ZM129.082 51.361l-.378 2.182h-8.726V37.96h8.436l.378 2.182h-6.433v4.318h5.299v2.182h-5.299v4.719h6.723ZM133.179 52.14l.422-2.404c1.248 1.136 2.804 1.936 4.362 1.936 1.558 0 2.627-1.002 2.627-2.337 0-1.025-.579-1.916-2.182-2.449l-.978-.311c-2.871-.934-3.829-2.671-3.829-4.584 0-2.449 1.937-4.318 4.696-4.318 1.313 0 2.76.422 4.095 1.201l-.401 2.314c-1.312-.89-2.56-1.379-3.74-1.379-1.424 0-2.315.89-2.315 2.114 0 1.025.557 1.849 2.405 2.449l1.002.311c2.56.846 3.629 2.581 3.629 4.54 0 2.56-1.869 4.608-4.986 4.608-2.026 0-3.673-.847-4.807-1.693v.002Z" style="fill:#0e0e03;fill-rule:nonzero"/>
  </g>
  <path id="house" d="M47.932 55.093H28.914V41.989h-5.781v13.104H4.117V24.426H.425L26.023.425l.403.377c1.981 1.855 3.961 3.711 5.94 5.568 1.603 1.501 3.205 3.003 4.806 4.505V6.907h4.742v8.414c1.234 1.16 7.424 6.962 8.628 8.086l1.091 1.019h-3.701v30.667ZM30.09 53.917h16.664V23.25h1.896a36702.64 36702.64 0 0 1-7.585-7.111l-.012-.012a1.485 1.485 0 0 0-.104-.095l-.212-.176V8.084h-2.389v5.503l-.99-.928-5.796-5.433a5471.474 5471.474 0 0 0-5.539-5.191L3.4 23.248h1.893v30.667h16.664V40.811h8.133v13.106Z" style="fill:#0e0e03;fill-rule:nonzero;stroke:#000;stroke-width:.85px"/>
</svg>
